# xmcd
#
# Track frame offsets: 
#        150
#        27099
#        50275
#        68312
#        91597
#        167998
#        189207
#        236537
#        268635
#
# Disc length: 4414 seconds
#
# Revision: 0
# Processed by: cddbd v1.5.2PL0 Copyright (c) Steve Scherf et al.
# Submitted via: ExactAudioCopy v0.95b4
#
DISCID=61113c09
DTITLE=Cream - Cream @ The Colosseum
DYEAR=1968
DGENRE=Blues
TTITLE0=White Room
TTITLE1=Politician
TTITLE2=Crossroads
TTITLE3=Sunshine Of Your Love
TTITLE4=Spoonful
TTITLE5=Deserted Cities Of The Heart
TTITLE6=Passing The Time
TTITLE7=I'm So Glad
TTITLE8=Steppin' Out
EXTD=
EXTT0=
EXTT1=
EXTT2=
EXTT3=
EXTT4=
EXTT5=
EXTT6=
EXTT7=
EXTT8=
PLAYORDER=
